<?xml version="1.0" encoding="utf-8"?>
<!-- Generator: Adobe Illustrator 27.1.1, SVG Export Plug-In . SVG Version: 6.00 Build 0)  -->
<svg version="1.1" id="레이어_1" xmlns="http://www.w3.org/2000/svg" xmlns:xlink="http://www.w3.org/1999/xlink" x="0px"
	 y="0px" viewBox="0 0 728.14 147.86" style="enable-background:new 0 0 728.14 147.86;" xml:space="preserve">
<style type="text/css">
	.그림자_x0020_만들기{fill:none;}
	.외부_x0020_광선_x0020_5pt{fill:none;}
	.파란색_x0020_네온{fill:none;stroke:#8AACDA;stroke-width:7;stroke-linecap:round;stroke-linejoin:round;}
	.크롬_x0020_강조{fill:url(#SVGID_1_);stroke:#FFFFFF;stroke-width:0.3629;stroke-miterlimit:1;}
	.자이브_GS{fill:#FFDD00;}
	.알리사_GS{fill:#A6D0E4;}
</style>
<linearGradient id="SVGID_1_" gradientUnits="userSpaceOnUse" x1="0.2881" y1="0.3154" x2="0.2881" y2="-0.6846">
	<stop  offset="0" style="stop-color:#656565"/>
	<stop  offset="0.618" style="stop-color:#1B1B1B"/>
	<stop  offset="0.6292" style="stop-color:#545454"/>
	<stop  offset="0.9831" style="stop-color:#3E3E3E"/>
</linearGradient>
<g>
	<path d="M61.61,147.86c-11.85,0-23.3-1.35-34.34-4.04c-11.04-2.69-20.13-6.19-27.27-10.5l15.35-34.74
		c6.73,3.91,14.24,7.04,22.52,9.39c8.28,2.36,16.33,3.54,24.14,3.54c4.58,0,8.18-0.3,10.81-0.91s4.54-1.48,5.76-2.63
		c1.21-1.14,1.82-2.52,1.82-4.14c0-2.56-1.41-4.58-4.24-6.06c-2.83-1.48-6.56-2.73-11.21-3.74c-4.65-1.01-9.73-2.09-15.25-3.23
		c-5.52-1.14-11.08-2.66-16.66-4.54c-5.59-1.88-10.71-4.37-15.35-7.47c-4.65-3.1-8.38-7.17-11.21-12.22
		c-2.83-5.05-4.24-11.34-4.24-18.89c0-8.75,2.46-16.73,7.37-23.94c4.91-7.2,12.25-12.96,22.02-17.27C41.37,2.16,53.53,0,68.07,0
		c9.56,0,18.99,1.01,28.28,3.03c9.29,2.02,17.64,5.12,25.05,9.29l-14.34,34.54c-7-3.5-13.77-6.13-20.3-7.88
		c-6.53-1.75-12.9-2.63-19.09-2.63c-4.58,0-8.22,0.4-10.91,1.21c-2.7,0.81-4.61,1.89-5.76,3.23c-1.15,1.35-1.72,2.83-1.72,4.44
		c0,2.42,1.41,4.34,4.24,5.76c2.83,1.41,6.56,2.59,11.21,3.54c4.65,0.94,9.76,1.95,15.35,3.03c5.59,1.08,11.14,2.56,16.66,4.44
		c5.52,1.89,10.6,4.38,15.25,7.47c4.65,3.1,8.38,7.14,11.21,12.12c2.83,4.98,4.24,11.18,4.24,18.58c0,8.62-2.46,16.53-7.37,23.73
		c-4.92,7.21-12.22,13-21.92,17.37S76.28,147.86,61.61,147.86z"/>
	<path d="M169.24,144.63V40.2h-41.41V3.23h130.49V40.2h-41.41v104.43H169.24z"/>
	<path d="M342.92,147.86c-11.58,0-22.25-1.82-32.02-5.45c-9.76-3.64-18.21-8.79-25.35-15.45c-7.14-6.67-12.69-14.51-16.67-23.53
		c-3.97-9.02-5.96-18.85-5.96-29.49c0-10.77,1.99-20.63,5.96-29.59c3.97-8.95,9.53-16.77,16.67-23.43
		c7.14-6.67,15.58-11.82,25.35-15.45C320.66,1.82,331.27,0,342.71,0c11.58,0,22.22,1.82,31.92,5.45c9.7,3.64,18.11,8.79,25.25,15.45
		c7.14,6.67,12.69,14.48,16.66,23.43c3.97,8.96,5.96,18.82,5.96,29.59c0,10.64-1.99,20.47-5.96,29.49
		c-3.97,9.02-9.53,16.87-16.66,23.53c-7.14,6.67-15.55,11.82-25.25,15.45C364.93,146.04,354.36,147.86,342.92,147.86z
		 M342.71,109.28c4.44,0,8.58-0.81,12.42-2.42c3.84-1.62,7.2-3.94,10.1-6.97c2.89-3.03,5.15-6.73,6.77-11.11
		c1.62-4.37,2.42-9.32,2.42-14.85c0-5.52-0.81-10.47-2.42-14.85c-1.62-4.37-3.87-8.08-6.77-11.11c-2.9-3.03-6.26-5.35-10.1-6.97
		c-3.84-1.62-7.98-2.42-12.42-2.42c-4.44,0-8.58,0.81-12.42,2.42c-3.84,1.62-7.21,3.94-10.1,6.97c-2.9,3.03-5.15,6.74-6.77,11.11
		c-1.62,4.38-2.42,9.33-2.42,14.85c0,5.52,0.81,10.47,2.42,14.85c1.62,4.38,3.87,8.08,6.77,11.11c2.89,3.03,6.26,5.35,10.1,6.97
		C334.13,108.47,338.27,109.28,342.71,109.28z"/>
	<path d="M508.96,147.86c-11.31,0-21.78-1.79-31.41-5.35c-9.63-3.57-17.98-8.65-25.05-15.25c-7.07-6.6-12.56-14.41-16.46-23.43
		c-3.91-9.02-5.86-18.99-5.86-29.9s1.95-20.87,5.86-29.9c3.9-9.02,9.39-16.83,16.46-23.43c7.07-6.6,15.42-11.68,25.05-15.25
		C487.17,1.79,497.64,0,508.96,0c13.87,0,26.16,2.42,36.86,7.27c10.71,4.85,19.56,11.85,26.56,21.01l-30.1,26.87
		c-4.18-5.25-8.79-9.32-13.84-12.22c-5.05-2.89-10.74-4.34-17.07-4.34c-4.98,0-9.49,0.81-13.53,2.42c-4.04,1.62-7.51,3.97-10.4,7.07
		c-2.9,3.1-5.15,6.84-6.77,11.21c-1.62,4.38-2.42,9.26-2.42,14.64c0,5.39,0.81,10.27,2.42,14.64c1.62,4.38,3.87,8.11,6.77,11.21
		c2.89,3.1,6.36,5.45,10.4,7.07c4.04,1.62,8.55,2.42,13.53,2.42c6.33,0,12.02-1.45,17.07-4.34c5.05-2.89,9.66-6.97,13.84-12.22
		l30.1,26.87c-7,9.02-15.86,15.99-26.56,20.91C535.11,145.4,522.82,147.86,508.96,147.86z"/>
	<path d="M580.07,144.63V3.23h46.86v141.4H580.07z M622.7,114.33l-2.63-52.32L673.4,3.23h51.91l-59.79,65.85l-26.46,27.07
		L622.7,114.33z M672.99,144.63l-41.61-54.94l30.91-32.72l65.85,87.67H672.99z"/>
</g>
</svg>
