<?xml version="1.0" encoding="utf-8"?>
<!-- Generator: Adobe Illustrator 27.1.1, SVG Export Plug-In . SVG Version: 6.00 Build 0)  -->
<svg version="1.1" id="레이어_1" xmlns="http://www.w3.org/2000/svg" xmlns:xlink="http://www.w3.org/1999/xlink" x="0px"
	 y="0px" viewBox="0 0 885.93 128.45" style="enable-background:new 0 0 885.93 128.45;" xml:space="preserve">
<style type="text/css">
	.그림자_x0020_만들기{fill:none;}
	.외부_x0020_광선_x0020_5pt{fill:none;}
	.파란색_x0020_네온{fill:none;stroke:#8AACDA;stroke-width:7;stroke-linecap:round;stroke-linejoin:round;}
	.크롬_x0020_강조{fill:url(#SVGID_1_);stroke:#FFFFFF;stroke-width:0.3629;stroke-miterlimit:1;}
	.자이브_GS{fill:#FFDD00;}
	.알리사_GS{fill:#A6D0E4;}
</style>
<linearGradient id="SVGID_1_" gradientUnits="userSpaceOnUse" x1="-273.9951" y1="-234.4878" x2="-273.9951" y2="-235.4878">
	<stop  offset="0" style="stop-color:#656565"/>
	<stop  offset="0.618" style="stop-color:#1B1B1B"/>
	<stop  offset="0.6292" style="stop-color:#545454"/>
	<stop  offset="0.9831" style="stop-color:#3E3E3E"/>
</linearGradient>
<g>
	<path d="M68.61,128.45c-9.94,0-19.1-1.55-27.46-4.65c-8.37-3.1-15.62-7.52-21.76-13.25c-6.14-5.73-10.91-12.52-14.3-20.36
		C1.69,82.36,0,73.7,0,64.23c0-9.48,1.69-18.13,5.09-25.97c3.39-7.84,8.19-14.62,14.39-20.36c6.2-5.73,13.54-10.15,22.02-13.25
		C49.98,1.55,59.31,0,69.49,0c12.17,0,23.02,2.05,32.55,6.14c9.53,4.1,17.4,9.94,23.6,17.55l-26.5,23.34
		c-3.86-4.44-8.04-7.81-12.55-10.09c-4.5-2.28-9.51-3.42-15-3.42c-4.56,0-8.69,0.7-12.37,2.11c-3.69,1.4-6.82,3.45-9.39,6.14
		c-2.57,2.69-4.56,5.91-5.97,9.65c-1.4,3.75-2.11,8.01-2.11,12.81c0,4.56,0.7,8.75,2.11,12.55c1.4,3.8,3.39,7.05,5.97,9.74
		c2.57,2.69,5.64,4.77,9.21,6.23c3.57,1.46,7.57,2.19,12.02,2.19c4.68,0,9.24-0.79,13.69-2.37c4.44-1.58,9.18-4.3,14.21-8.16
		l23.16,28.43c-7.49,5.03-16.03,8.89-25.62,11.58C86.92,127.11,77.62,128.45,68.61,128.45z M86.16,107.57V60.89h35.97v51.94
		L86.16,107.57z"/>
	<path d="M127.59,125.65l53.7-122.84H222l53.7,122.84h-42.82L193.22,22.46h16.14l-39.66,103.18H127.59z M159.53,104.24l10.53-29.83
		h56.5l10.53,29.83H159.53z"/>
	<path d="M327.15,94.41h61.42v31.24H286.44V2.81h99.85v31.24h-59.14V94.41z M324.34,48.43h54.75v29.83h-54.75V48.43z"/>
	<path d="M397.6,125.65V2.81h34.04L480.78,83h-17.9l47.73-80.19h34.04l0.35,122.84h-37.73l-0.35-65.98h5.97l-32.64,54.93h-18.25
		l-34.04-54.93h7.37v65.98H397.6z"/>
	<path d="M555.08,125.65V2.81h41.41v122.84H555.08z"/>
	<path d="M650.63,128.45c-9.59,0-18.25-1.55-25.97-4.65c-7.72-3.1-14.16-7.63-19.3-13.6l22.29-26.32c3.27,3.98,6.49,6.99,9.65,9.04
		c3.16,2.05,6.43,3.07,9.83,3.07c8.89,0,13.34-5.09,13.34-15.27V34.04h-41.76V2.81h82.65v75.46c0,16.85-4.33,29.42-12.99,37.73
		C679.7,124.3,667.13,128.45,650.63,128.45z"/>
	<path d="M712.36,125.65V2.81h41.41v122.84H712.36z"/>
	<path d="M764.85,125.65V2.81h65.63c16.96,0,29.48,3.01,37.55,9.04c8.07,6.03,12.11,13.72,12.11,23.08c0,6.2-1.73,11.73-5.18,16.58
		c-3.45,4.86-8.45,8.69-15,11.49c-6.55,2.81-14.62,4.21-24.22,4.21l3.51-9.48c9.59,0,17.87,1.35,24.83,4.04
		c6.96,2.69,12.34,6.58,16.14,11.67c3.8,5.09,5.7,11.2,5.7,18.34c0,10.65-4.42,18.95-13.25,24.92c-8.83,5.97-21.73,8.95-38.69,8.95
		H764.85z M805.56,96.69h24.92c4.56,0,7.98-0.82,10.27-2.46c2.28-1.64,3.42-4.04,3.42-7.2c0-3.16-1.14-5.55-3.42-7.19
		c-2.28-1.64-5.7-2.46-10.27-2.46h-27.73V50.01h22.11c4.68,0,8.1-0.79,10.27-2.37c2.16-1.58,3.25-3.83,3.25-6.76
		c0-3.04-1.08-5.32-3.25-6.84c-2.17-1.52-5.59-2.28-10.27-2.28h-19.3V96.69z"/>
</g>
</svg>
